<svg xmlns="http://www.w3.org/2000/svg" xmlns:xlink="http://www.w3.org/1999/xlink" width="49" height="35" viewBox="0 0 49 35"><defs><path id="xqkza" d="M751.72 424h19.59c8.65 0 15.69 7.17 15.69 16 0 8.82-7.04 16-15.7 16h-19.58c-7.7 0-11.71-8.28-11.71-16.45 0-7.5 3.66-15.56 11.7-15.56zm0 28.98h7.32c1.06-3.35 4.16-15 .05-25.97h-7.37c-6.05 0-8.76 6.3-8.76 12.54 0 6.51 3.07 13.43 8.76 13.43zm19.59-25.97h-9.08a38.3 38.3 0 0 1 1.92 12.24c0 5.98-1.2 11.04-2 13.73h9.16c7.02 0 12.73-5.82 12.73-12.99 0-7.16-5.71-12.98-12.73-12.98zm-14.22 14.3h-10.7a1.5 1.5 0 0 1-1.48-1.5c0-.84.66-1.51 1.47-1.51h10.71c.82 0 1.48.67 1.48 1.5 0 .84-.66 1.51-1.48 1.51z"/></defs><g><g opacity=".2" transform="translate(-739 -422)"><use fill="#fff" xlink:href="#xqkza"/></g></g></svg>