<svg xmlns="http://www.w3.org/2000/svg" xmlns:xlink="http://www.w3.org/1999/xlink" width="41" height="41" viewBox="0 0 41 41"><defs><path id="k90la" d="M986.17 1062.16l-.06 12.67c0 1.06-1.34 2.92-1.34 2.92-1 2.96 1.5 4.01-.24 5.82 2.31 4.76-2.34 5.43-2.34 5.43-1.6 0-1.35-1.6-1.35-1.6l-.01-9.9c.13-2.52-1.44-2.58-1.44-2.58-3.79 0-3.95-4.05-3.95-4.54a3.3 3.3 0 0 1-.01-5.43v-.11c0-3.99 4.1-4.17 4.1-4.17l5.21-.01c1.69 0 1.43 1.5 1.43 1.5zm24.83 5.02a4.5 4.5 0 0 1-2.38 3.98l.02 11.55c.08 1.42-1.03.06-1.03.06s-4.78-8.84-18.75-8.82c0 0-1.32 0-1.32-1.25l-.02-10.93s-.24-1.26 1.24-1.27c0 0 12.5.74 18.54-8.69 0 0 1.28-1.68 1.28-.17l.02 11.57a4.5 4.5 0 0 1 2.4 3.97zm-3.96-12.85c-3.98 6.18-12.2 7.33-12.2 7.33 10.66-.1 12.2-7.33 12.2-7.33zm1.93 9.85c1.58 2.32 1.16 4.29 1.16 4.29.97-3.05-1.16-4.29-1.16-4.29z"/></defs><g><g transform="translate(-972 -1049)"><use fill="#fff" xlink:href="#k90la"/></g></g></svg>