<svg xmlns="http://www.w3.org/2000/svg" xmlns:xlink="http://www.w3.org/1999/xlink" width="37" height="43" viewBox="0 0 37 43"><defs><path id="megra" d="M270.53 1072.61c.55 3.05.94 9.7-5 13.2-.78.48-1.37.03-1.35-.88.06-4-1.43-13.95-17.75-13.65-.92.01-1.48-.65-1.12-1.49 1.15-2.66 4.32-7.77 11.74-7.52.92.03 2-.52 2.5-1.3a26.98 26.98 0 0 1 8.47-8.43 20.33 20.33 0 0 1 6.78-2.72c.91-.18 1.68-.26 1.71-.3l.06-.09c.22-.27.47-.43.57-.36l.07.05c.04.03.3-.02.6-.11.3-.1.49.05.42.32-.06.27-.08.5-.05.53l.06.04c.1.07 0 .35-.22.62a1.9 1.9 0 0 1-.08.1c-.05.06.02.83.06 1.74a20.33 20.33 0 0 1-.33 4.67l-.07.35a21.79 21.79 0 0 1-1.37 4.43 30.13 30.13 0 0 1-4.97 7.96c-.6.7-.9 1.95-.73 2.84zm-.73-7.83c.9-1.51.34-3.46-1.23-4.35a3.34 3.34 0 0 0-4.46 1.1 3.15 3.15 0 0 0 1.23 4.35 3.34 3.34 0 0 0 4.46-1.1zm-15.7 21.6c.76-1.83 2.4-4.84 5.47-6.76.78-.48 1.26-.07.91.77-.8 1.9-2.49 5.1-5.42 6.83-.79.47-1.3 0-.96-.85zm-5.88.59c.92-2.46 3.21-7.24 7.9-10 .8-.47 1.28-.06.96.8-.97 2.56-3.37 7.66-7.84 10.08-.81.44-1.33-.03-1.02-.88zm-1-5.9c.77-1.81 2.4-4.82 5.48-6.74.77-.48 1.26-.07.9.77-.8 1.9-2.48 5.1-5.41 6.82-.8.47-1.31 0-.96-.84z"/></defs><g><g transform="translate(-243 -1047)"><use fill="#fff" xlink:href="#megra"/></g></g></svg>