<svg xmlns="http://www.w3.org/2000/svg" xmlns:xlink="http://www.w3.org/1999/xlink" width="40" height="40" viewBox="0 0 40 40"><defs><path id="olsua" d="M772 1053.9v29.2a3.9 3.9 0 0 1-3.89 3.9H738.9a3.9 3.9 0 0 1-3.9-3.9v-29.2a3.9 3.9 0 0 1 3.9-3.9h29.21a3.9 3.9 0 0 1 3.89 3.9zm-32.78 20.85h28.55v-19.48h-28.55zm30.1 5.47H749.4a3.33 3.33 0 0 0-6.47 0h-5.24v1.54h5.24a3.33 3.33 0 0 0 6.47 0h19.94zm-12.41-22.13h3.98v13.36h-3.98zm-10.99 5.14h3.98v8.22h-3.98zm5.5-2.18h3.98v10.4h-3.99z"/></defs><g><g transform="translate(-733 -1048)"><use fill="#fff" xlink:href="#olsua"/></g></g></svg>