<svg xmlns="http://www.w3.org/2000/svg" xmlns:xlink="http://www.w3.org/1999/xlink" width="43" height="42" viewBox="0 0 43 42"><defs><path id="by2xa" d="M517.6 1086.97c-.53.07-5.5 0-5.88 0-.36 0-5.34.07-5.87 0-.55-.08 0-.52.7-1.03.69-.51.76-1.28.76-1.28l.26-1.66h8.3l.27 1.66s.07.77.77 1.28c.69.51 1.24.95.7 1.03zm-15.23-14.34c2.22-.02 2.5-.55 3.22-2.78 1.33-3.52 7.34.92 3.62 2.46-3.73 1.54-9.06.34-6.84.32zm22.66-19.08l-13.38 14.57c-1.12 1.4-.86 1.33-1.94.46-1.08-.86-1.08-.6.04-2l11.39-16.17c1.12-1.4 2.9-1.82 3.98-.96 1.08.87 1.04 2.7-.09 4.1zm-1.1-3.9s-1.63-.25-2.46 1.1c.56.45.72.64.72.64s.2-.83 1.75-1.75zm7.84 6.88v23.26c0 .88-.72 1.6-1.6 1.6h-36.89a1.6 1.6 0 0 1-1.6-1.6v-23.26c0-.89.72-1.6 1.6-1.6h23.02l-1.7 2.4h-20.52v19.25h35.29v-19.25h-6.42l2.21-2.4h5c.9 0 1.61.71 1.61 1.6z"/></defs><g><g transform="translate(-490 -1047)"><use fill="#fc635e" xlink:href="#by2xa"/></g></g></svg>